<svg xmlns="http://www.w3.org/2000/svg" viewBox="0 0 900 600" role="img" aria-label="Iran Lion and Sun flag">
  <rect width="900" height="200" fill="#239F40"/>
  <rect y="200" width="900" height="200" fill="#FFFFFF"/>
  <rect y="400" width="900" height="200" fill="#DA0000"/>
  <g transform="translate(450 300)">
    <circle r="72" fill="none" stroke="#DA0000" stroke-width="6"/>
    <circle r="58" fill="none" stroke="#DA0000" stroke-width="3"/>
    <g fill="#DA0000" stroke="#DA0000" stroke-width="2">
      <path d="M-28 8c8-18 28-28 48-22 14 4 22 16 22 30 0 18-14 32-32 32-10 0-18-4-24-10-6 8-16 12-26 10-18-4-28-22-24-40 4-14 16-24 30-26 2 12 8 22 16 26z" fill="#F4C430" stroke="#C9A020"/>
      <path d="M18-6l14 6-8 12 10-2 4 14-12-4-6 12-2-14-12 6 8-10-10-2z" fill="#DA0000"/>
      <rect x="-52" y="28" width="104" height="8" rx="2" fill="#8B4513"/>
      <path d="M48 24l36-8v16l-36-8z" fill="#C0C0C0" stroke="#808080"/>
    </g>
  </g>
</svg>
